<svg width="200" height="200" viewBox="0 0 1024 1024"><path fill="#1C6EFF" d="M704 446c4.4 0 8 3.6 8 8v402c0 4.4-3.6 8-8 8H320c-4.4 0-8-3.6-8-8V454c0-4.4 3.6-8 8-8z m-56 237H376v117h272V683zM512.2 162c136.7 0 253.4 86 299.2 206.9 85.9 22.8 149.2 101.5 148.604 194.9C959.3 668 878.5 752.8 776.8 762c-4.7 0.4-8.8-3.3-8.8-8v-60.5c0-4 2.9-7.4 6.9-7.9 27-3.4 52.4-15.3 71.9-34.5 24-23.5 37.2-55 37.2-88.6 0-56.3-37.9-105.6-92.1-120l-37.8-10-13.8-36.6c-8.6-22.8-20.6-44.2-35.7-63.5-14.9-19.2-32.5-36-52.4-50-41.1-29-89.5-44.3-140-44.3s-98.9 15.3-140 44.2c-19.8 14-37.5 30.8-52.4 50-15.1 19.3-27.1 40.7-35.7 63.5l-13.9 36.7-37.9 10c-25.9 6.8-49.4 22.3-66.1 43.7-17.1 22-26.2 48.4-26.2 76.4 0 33.5 13.2 65.1 37.2 88.6 19.6 19.3 45.1 31.1 72.1 34.5 4 0.5 7 3.9 7 7.9V754c0 4.7-4 8.4-8.7 8-102-9.1-183-94-183.603-198.4C63.5 470.2 126.9 391.5 213 368.8 258.8 247.9 375.5 162 512.2 162zM648 510H376v117h272V510z"/><path fill="#44D7B6" d="M480 716a8 8 0 0 1 8 8v48a8 8 0 0 1-8 8h-48a8 8 0 0 1-8-8v-48a8 8 0 0 1 8-8h48z m0-178a8 8 0 0 1 8 8v48a8 8 0 0 1-8 8h-48a8 8 0 0 1-8-8v-48a8 8 0 0 1 8-8h48z"/></svg>